Coordinates
version=1
nRows=27
nColumns=38
inDegrees=no

Units are S.I. units (second, meters, Newtons, ...)
If the header above contains a line with 'inDegrees', this indicates whether rotational values are in degrees (yes) or radians (no).

endheader
time	pelvis_tilt	pelvis_list	pelvis_rotation	pelvis_tx	pelvis_ty	pelvis_tz	hip_flexion_r	hip_adduction_r	hip_rotation_r	knee_angle_r	ankle_angle_r	subtalar_angle_r	mtp_angle_r	hip_flexion_l	hip_adduction_l	hip_rotation_l	knee_angle_l	ankle_angle_l	subtalar_angle_l	mtp_angle_l	lumbar_extension	lumbar_bending	lumbar_rotation	arm_flex_r	arm_add_r	arm_rot_r	elbow_flex_r	pro_sup_r	wrist_flex_r	wrist_dev_r	arm_flex_l	arm_add_l	arm_rot_l	elbow_flex_l	pro_sup_l	wrist_flex_l	wrist_dev_l
15	0.621989	1.53957	0.890577	0.705136	0.209808	1.01465	0.0359515	-0.107192	-0.547138	0.21395	0.102582	0	0	-0.0900926	-0.0694175	-0.249378	0	0.014372	0	0	-0.0813421	0.0386177	0.0697538	-0.190048	-0.22481	-0.0597602	0.719662	1.3169	0	0	-0.083087	-0.175565	0.126381	0.584147	1.46621	0	0
15.01	0.595593	1.53873	0.916228	0.704948	0.209529	1.01459	0.0377246	-0.107673	-0.546952	0.214066	0.10228	0	0	-0.0886629	-0.0689306	-0.250033	0	0.0143589	0	0	-0.0823326	0.03822	0.0696311	-0.188696	-0.226459	-0.0614444	0.72014	1.31546	0	0	-0.0818253	-0.176839	0.12316	0.582965	1.46643	0	0
15.02	0.568137	1.53777	0.942912	0.704744	0.209269	1.01452	0.0396346	-0.108104	-0.546779	0.214062	0.101952	0	0	-0.0870709	-0.0684505	-0.250715	0	0.0143902	0	0	-0.083198	0.0377724	0.0696469	-0.187254	-0.228372	-0.0629696	0.720469	1.31434	0	0	-0.0805311	-0.178419	0.120282	0.582077	1.467	0	0
15.03	0.541708	1.53675	0.968519	0.704532	0.208997	1.01443	0.0415525	-0.108516	-0.546561	0.213995	0.101555	0	0	-0.0854374	-0.0679816	-0.251446	0	0.0143736	0	0	-0.0840724	0.0373552	0.0696521	-0.185717	-0.230715	-0.0636086	0.721444	1.31286	0	0	-0.0790404	-0.180192	0.117727	0.581254	1.46767	0	0
15.04	0.517414	1.53569	0.991906	0.704333	0.20869	1.01434	0.0434019	-0.108854	-0.546118	0.213754	0.101013	0	0	-0.0838036	-0.0675247	-0.252321	0	0.0143099	0	0	-0.0850538	0.0369701	0.0697471	-0.184054	-0.233236	-0.064902	0.723185	1.31167	0	0	-0.0771617	-0.182014	0.115061	0.580257	1.46839	0	0
15.05	0.494765	1.53461	1.01361	0.704117	0.208421	1.01425	0.0453066	-0.10921	-0.545607	0.213546	0.1004	0	0	-0.0821176	-0.0670732	-0.253206	0	0.014285	0	0	-0.0861364	0.0365735	0.0699948	-0.182299	-0.235821	-0.067632	0.725122	1.3115	0	0	-0.0748798	-0.18395	0.112134	0.578881	1.46914	0	0
15.06	0.471246	1.53353	1.03617	0.703906	0.20811	1.01419	0.0472879	-0.109691	-0.545068	0.213418	0.0998311	0	0	-0.080394	-0.0665327	-0.253948	0	0.014221	0	0	-0.0873487	0.0360212	0.0703279	-0.18045	-0.23865	-0.0704525	0.727169	1.31128	0	0	-0.0722002	-0.18598	0.108468	0.576867	1.46952	0	0
15.07	0.447986	1.53242	1.05845	0.703668	0.20779	1.01412	0.0494314	-0.110238	-0.544565	0.213474	0.0993718	0	0	-0.0786061	-0.0659498	-0.254628	0	0.0140688	0	0	-0.0886844	0.0354452	0.0707056	-0.178488	-0.241713	-0.0728803	0.729763	1.30827	0	0	-0.0690556	-0.188093	0.104168	0.574	1.46909	0	0
15.08	0.427976	1.53136	1.07756	0.703425	0.207452	1.01407	0.0513498	-0.110746	-0.5442	0.21342	0.098912	0	0	-0.0769727	-0.0654057	-0.255205	0	0.0138182	0	0	-0.0902448	0.034918	0.0710243	-0.176454	-0.244945	-0.0756732	0.733269	1.30332	0	0	-0.0658144	-0.190503	0.100208	0.572181	1.46866	0	0
15.09	0.405951	1.53022	1.09878	0.703168	0.207108	1.01402	0.0535432	-0.111411	-0.543809	0.21365	0.0985591	0	0	-0.0751769	-0.0648012	-0.255692	0	0.0135761	0	0	-0.0917819	0.0343081	0.0712798	-0.174439	-0.248412	-0.0785971	0.737192	1.29879	0	0	-0.0624545	-0.193253	0.0961732	0.57086	1.46879	0	0
15.1	0.380146	1.52895	1.12374	0.702905	0.206752	1.01394	0.0561773	-0.112329	-0.543451	0.214204	0.0983382	0	0	-0.0731027	-0.0640223	-0.256377	0	0.0135372	0	0	-0.0932421	0.0335047	0.0715382	-0.172421	-0.252149	-0.0812241	0.74136	1.29377	0	0	-0.0589689	-0.19635	0.092322	0.569714	1.46824	0	0
15.11	0.354058	1.52759	1.14907	0.702627	0.206368	1.01385	0.0589736	-0.113397	-0.543561	0.214923	0.0982043	0	0	-0.0708526	-0.0631605	-0.25735	0	0.013613	0	0	-0.0948152	0.0326559	0.0717237	-0.170394	-0.256172	-0.0837629	0.746496	1.28701	0	0	-0.0552141	-0.199731	0.088993	0.568775	1.46685	0	0
15.12	0.329608	1.52613	1.17289	0.702324	0.205967	1.01373	0.0619916	-0.114497	-0.543695	0.216145	0.0979278	0	0	-0.0684605	-0.0623454	-0.258054	0	0.013641	0	0	-0.096566	0.0318549	0.0718108	-0.168176	-0.260327	-0.086401	0.752409	1.27846	0	0	-0.0512909	-0.203273	0.0858284	0.568575	1.46495	0	0
15.13	0.307281	1.52457	1.19464	0.702017	0.205518	1.01361	0.0650835	-0.115584	-0.543815	0.217426	0.0977814	0	0	-0.0659817	-0.0615932	-0.258415	0	0.0136942	0	0	-0.0985344	0.0310999	0.0717895	-0.165664	-0.264616	-0.0890595	0.758859	1.26966	0	0	-0.0472964	-0.206931	0.0821292	0.569	1.46225	0	0
15.14	0.287944	1.52303	1.21339	0.701704	0.205078	1.01348	0.0680199	-0.116551	-0.543766	0.218324	0.0976824	0	0	-0.0635429	-0.0609192	-0.258595	0	0.0138086	0	0	-0.10082	0.0303751	0.0717985	-0.163	-0.269062	-0.0922811	0.765765	1.26218	0	0	-0.0430592	-0.210903	0.0781961	0.570061	1.45853	0	0
15.15	0.265733	1.52145	1.23498	0.701369	0.20463	1.01333	0.0712197	-0.117792	-0.543509	0.219342	0.0977751	0	0	-0.0609209	-0.0600264	-0.259106	0	0.0140569	0	0	-0.103292	0.0294224	0.0718868	-0.160173	-0.273636	-0.0958482	0.773118	1.25596	0	0	-0.0385744	-0.215111	0.074077	0.571476	1.45405	0	0
15.16	0.239093	1.51966	1.26092	0.701009	0.204121	1.01317	0.0753986	-0.119758	-0.54364	0.222085	0.0983274	0	0	-0.057903	-0.0588572	-0.259807	0	0.0143302	0	0	-0.105875	0.0281907	0.072037	-0.157001	-0.278362	-0.09934	0.780935	1.25032	0	0	-0.0338731	-0.219477	0.0697474	0.573573	1.4487	0	0
15.17	0.211707	1.51768	1.28758	0.70064	0.203546	1.013	0.0801385	-0.122029	-0.543857	0.225748	0.0989817	0	0	-0.0545826	-0.0576032	-0.260464	0	0.0146717	0	0	-0.108647	0.0268358	0.0721185	-0.15341	-0.283348	-0.102175	0.789135	1.24475	0	0	-0.0290536	-0.224019	0.0654545	0.57654	1.44195	0	0
15.18	0.184223	1.51546	1.31428	0.700272	0.2029	1.01282	0.0851888	-0.124345	-0.543821	0.229263	0.0994924	0	0	-0.0509529	-0.0563121	-0.261105	0	0.015043	0	0	-0.111579	0.0253818	0.0721559	-0.149147	-0.287866	-0.107097	0.796925	1.24788	0	0	-0.0238256	-0.227975	0.0574633	0.579266	1.44489	0	0
15.19	0.153503	1.51295	1.34422	0.699859	0.202257	1.0126	0.0908681	-0.127085	-0.543839	0.233195	0.10037	0	0	-0.0467936	-0.0547737	-0.26204	0	0.0157725	0	0	-0.114539	0.0236339	0.0722395	-0.144943	-0.293027	-0.110056	0.805834	1.24278	0	0	-0.0183876	-0.232775	0.0523277	0.582952	1.43937	0	0
15.2	0.124004	1.51033	1.37287	0.699438	0.201561	1.01236	0.096826	-0.129948	-0.543763	0.237299	0.101214	0	0	-0.0423608	-0.0532387	-0.262927	0	0.0165777	0	0	-0.118189	0.0216905	0.0723588	-0.139937	-0.298259	-0.112908	0.814643	1.23974	0	0	-0.0122814	-0.23796	0.0478119	0.587372	1.43355	0	0
15.21	0.0927272	1.50753	1.40319	0.699023	0.200758	1.0121	0.103354	-0.133385	-0.54434	0.242361	0.102359	0	0	-0.0375635	-0.0514515	-0.263832	0	0.0174684	0	0	-0.122074	0.0193626	0.072799	-0.134971	-0.304277	-0.112858	0.824597	1.22457	0	0	-0.0067128	-0.24555	0.0548112	0.595207	1.39439	0	0
15.22	0.0653353	1.50418	1.4297	0.698601	0.199913	1.01185	0.110285	-0.136426	-0.544481	0.246522	0.102901	0	0	-0.0319483	-0.0499156	-0.26465	0	0.0183727	0	0	-0.126244	0.0173039	0.0726234	-0.128303	-0.308688	-0.118323	0.832648	1.23459	0	0	0.00106226	-0.248361	0.039034	0.596761	1.41811	0	0
15.23	-0.0201824	1.50044	1.50728	0.698549	0.198414	1.01122	0.124925	-0.146552	-0.539611	0.263486	0.110821	0	0	-0.0251723	-0.0433532	-0.277309	0	0.0210782	0	0	-0.130934	0.00885854	0.0806001	-0.128721	-0.333001	-0.0581728	0.864649	0.971873	0	0	-0.00393156	-0.286386	0.162692	0.65479	1.046	0	0
15.24	0.0085067	1.49621	1.48493	0.697678	0.197929	1.01123	0.126941	-0.144145	-0.545527	0.258378	0.104865	0	0	-0.0184511	-0.0463912	-0.266199	0	0.0201767	0	0	-0.134792	0.0121795	0.0728862	-0.114602	-0.319543	-0.121765	0.850794	1.21714	0	0	0.0167865	-0.261066	0.0399017	0.607713	1.38157	0	0
15.25	-0.0181166	1.49199	1.51054	0.697222	0.196852	1.01092	0.135517	-0.148143	-0.545844	0.263949	0.105325	0	0	-0.011222	-0.0445096	-0.267142	0	0.0213909	0	0	-0.139768	0.00925924	0.0732987	-0.106632	-0.325165	-0.122321	0.859353	1.20539	0	0	0.025805	-0.268028	0.0435271	0.613794	1.35952	0	0
15.26	-0.0454797	1.48708	1.53679	0.696746	0.195691	1.01057	0.145147	-0.152591	-0.546402	0.270023	0.106143	0	0	-0.00303523	-0.0423594	-0.268338	0	0.0229839	0	0	-0.144708	0.00607214	0.0735452	-0.0975382	-0.329951	-0.125494	0.866481	1.20603	0	0	0.0362546	-0.273096	0.038614	0.617245	1.36307	0	0
